<mxfile host="app.diagrams.net" modified="2023-09-06T03:39:48.887Z" agent="Mozilla/5.0 (Windows NT 10.0; Win64; x64) AppleWebKit/537.36 (KHTML, like Gecko) Chrome/113.0.0.0 Safari/537.36" etag="uyVVugbGgEZA0nHw-R0H" version="21.6.8" type="github">
  <diagram name="第 1 页" id="aw-wVuxeQRiTpPF4VpSv">
    <mxGraphModel dx="1434" dy="746" grid="1" gridSize="10" guides="1" tooltips="1" connect="1" arrows="1" fold="1" page="1" pageScale="1" pageWidth="2339" pageHeight="3300" math="0" shadow="0">
      <root>
        <mxCell id="0" />
        <mxCell id="1" parent="0" />
        <mxCell id="XbH7AC_qgNwCNuD4yxMm-4" value="" style="edgeStyle=orthogonalEdgeStyle;rounded=0;orthogonalLoop=1;jettySize=auto;html=1;" edge="1" parent="1" source="XbH7AC_qgNwCNuD4yxMm-1" target="XbH7AC_qgNwCNuD4yxMm-3">
          <mxGeometry relative="1" as="geometry" />
        </mxCell>
        <mxCell id="XbH7AC_qgNwCNuD4yxMm-1" value="" style="rounded=1;whiteSpace=wrap;html=1;" vertex="1" parent="1">
          <mxGeometry x="210" y="230" width="120" height="60" as="geometry" />
        </mxCell>
        <mxCell id="XbH7AC_qgNwCNuD4yxMm-6" value="" style="edgeStyle=orthogonalEdgeStyle;rounded=0;orthogonalLoop=1;jettySize=auto;html=1;" edge="1" parent="1" source="XbH7AC_qgNwCNuD4yxMm-3" target="XbH7AC_qgNwCNuD4yxMm-5">
          <mxGeometry relative="1" as="geometry" />
        </mxCell>
        <mxCell id="XbH7AC_qgNwCNuD4yxMm-3" value="" style="rounded=1;whiteSpace=wrap;html=1;" vertex="1" parent="1">
          <mxGeometry x="410" y="230" width="120" height="60" as="geometry" />
        </mxCell>
        <mxCell id="XbH7AC_qgNwCNuD4yxMm-8" value="" style="edgeStyle=orthogonalEdgeStyle;rounded=0;orthogonalLoop=1;jettySize=auto;html=1;" edge="1" parent="1" source="XbH7AC_qgNwCNuD4yxMm-5" target="XbH7AC_qgNwCNuD4yxMm-7">
          <mxGeometry relative="1" as="geometry" />
        </mxCell>
        <mxCell id="XbH7AC_qgNwCNuD4yxMm-5" value="" style="rounded=1;whiteSpace=wrap;html=1;" vertex="1" parent="1">
          <mxGeometry x="610" y="230" width="120" height="60" as="geometry" />
        </mxCell>
        <mxCell id="XbH7AC_qgNwCNuD4yxMm-10" value="" style="edgeStyle=orthogonalEdgeStyle;rounded=0;orthogonalLoop=1;jettySize=auto;html=1;" edge="1" parent="1" source="XbH7AC_qgNwCNuD4yxMm-7" target="XbH7AC_qgNwCNuD4yxMm-9">
          <mxGeometry relative="1" as="geometry" />
        </mxCell>
        <mxCell id="XbH7AC_qgNwCNuD4yxMm-7" value="" style="rounded=1;whiteSpace=wrap;html=1;" vertex="1" parent="1">
          <mxGeometry x="810" y="230" width="120" height="60" as="geometry" />
        </mxCell>
        <mxCell id="XbH7AC_qgNwCNuD4yxMm-21" value="" style="edgeStyle=orthogonalEdgeStyle;rounded=0;orthogonalLoop=1;jettySize=auto;html=1;" edge="1" parent="1" source="XbH7AC_qgNwCNuD4yxMm-9" target="XbH7AC_qgNwCNuD4yxMm-20">
          <mxGeometry relative="1" as="geometry" />
        </mxCell>
        <mxCell id="XbH7AC_qgNwCNuD4yxMm-24" value="划拨" style="edgeLabel;html=1;align=center;verticalAlign=middle;resizable=0;points=[];" vertex="1" connectable="0" parent="XbH7AC_qgNwCNuD4yxMm-21">
          <mxGeometry x="-0.025" y="-2" relative="1" as="geometry">
            <mxPoint as="offset" />
          </mxGeometry>
        </mxCell>
        <mxCell id="XbH7AC_qgNwCNuD4yxMm-9" value="" style="rounded=1;whiteSpace=wrap;html=1;" vertex="1" parent="1">
          <mxGeometry x="1010" y="230" width="120" height="60" as="geometry" />
        </mxCell>
        <mxCell id="XbH7AC_qgNwCNuD4yxMm-11" value="" style="edgeStyle=orthogonalEdgeStyle;rounded=0;orthogonalLoop=1;jettySize=auto;html=1;" edge="1" parent="1" source="XbH7AC_qgNwCNuD4yxMm-12" target="XbH7AC_qgNwCNuD4yxMm-14">
          <mxGeometry relative="1" as="geometry" />
        </mxCell>
        <mxCell id="XbH7AC_qgNwCNuD4yxMm-12" value="" style="rounded=1;whiteSpace=wrap;html=1;" vertex="1" parent="1">
          <mxGeometry x="210" y="360" width="120" height="60" as="geometry" />
        </mxCell>
        <mxCell id="XbH7AC_qgNwCNuD4yxMm-13" value="" style="edgeStyle=orthogonalEdgeStyle;rounded=0;orthogonalLoop=1;jettySize=auto;html=1;" edge="1" parent="1" source="XbH7AC_qgNwCNuD4yxMm-14" target="XbH7AC_qgNwCNuD4yxMm-16">
          <mxGeometry relative="1" as="geometry" />
        </mxCell>
        <mxCell id="XbH7AC_qgNwCNuD4yxMm-14" value="" style="rounded=1;whiteSpace=wrap;html=1;" vertex="1" parent="1">
          <mxGeometry x="410" y="360" width="120" height="60" as="geometry" />
        </mxCell>
        <mxCell id="XbH7AC_qgNwCNuD4yxMm-15" value="" style="edgeStyle=orthogonalEdgeStyle;rounded=0;orthogonalLoop=1;jettySize=auto;html=1;" edge="1" parent="1" source="XbH7AC_qgNwCNuD4yxMm-16" target="XbH7AC_qgNwCNuD4yxMm-18">
          <mxGeometry relative="1" as="geometry" />
        </mxCell>
        <mxCell id="XbH7AC_qgNwCNuD4yxMm-16" value="" style="rounded=1;whiteSpace=wrap;html=1;" vertex="1" parent="1">
          <mxGeometry x="610" y="360" width="120" height="60" as="geometry" />
        </mxCell>
        <mxCell id="XbH7AC_qgNwCNuD4yxMm-17" value="" style="edgeStyle=orthogonalEdgeStyle;rounded=0;orthogonalLoop=1;jettySize=auto;html=1;" edge="1" parent="1" source="XbH7AC_qgNwCNuD4yxMm-18" target="XbH7AC_qgNwCNuD4yxMm-19">
          <mxGeometry relative="1" as="geometry" />
        </mxCell>
        <mxCell id="XbH7AC_qgNwCNuD4yxMm-18" value="" style="rounded=1;whiteSpace=wrap;html=1;" vertex="1" parent="1">
          <mxGeometry x="810" y="360" width="120" height="60" as="geometry" />
        </mxCell>
        <mxCell id="XbH7AC_qgNwCNuD4yxMm-22" style="edgeStyle=orthogonalEdgeStyle;rounded=0;orthogonalLoop=1;jettySize=auto;html=1;entryX=0;entryY=0.5;entryDx=0;entryDy=0;" edge="1" parent="1" source="XbH7AC_qgNwCNuD4yxMm-19" target="XbH7AC_qgNwCNuD4yxMm-20">
          <mxGeometry relative="1" as="geometry" />
        </mxCell>
        <mxCell id="XbH7AC_qgNwCNuD4yxMm-23" value="出让" style="edgeLabel;html=1;align=center;verticalAlign=middle;resizable=0;points=[];" vertex="1" connectable="0" parent="XbH7AC_qgNwCNuD4yxMm-22">
          <mxGeometry x="-0.2" relative="1" as="geometry">
            <mxPoint as="offset" />
          </mxGeometry>
        </mxCell>
        <mxCell id="XbH7AC_qgNwCNuD4yxMm-19" value="" style="rounded=1;whiteSpace=wrap;html=1;" vertex="1" parent="1">
          <mxGeometry x="1010" y="360" width="120" height="60" as="geometry" />
        </mxCell>
        <mxCell id="XbH7AC_qgNwCNuD4yxMm-27" value="" style="edgeStyle=orthogonalEdgeStyle;rounded=0;orthogonalLoop=1;jettySize=auto;html=1;" edge="1" parent="1" source="XbH7AC_qgNwCNuD4yxMm-20" target="XbH7AC_qgNwCNuD4yxMm-26">
          <mxGeometry relative="1" as="geometry" />
        </mxCell>
        <mxCell id="XbH7AC_qgNwCNuD4yxMm-20" value="" style="rounded=1;whiteSpace=wrap;html=1;" vertex="1" parent="1">
          <mxGeometry x="1230" y="290" width="120" height="60" as="geometry" />
        </mxCell>
        <mxCell id="XbH7AC_qgNwCNuD4yxMm-30" value="" style="edgeStyle=orthogonalEdgeStyle;rounded=0;orthogonalLoop=1;jettySize=auto;html=1;" edge="1" parent="1" source="XbH7AC_qgNwCNuD4yxMm-26" target="XbH7AC_qgNwCNuD4yxMm-29">
          <mxGeometry relative="1" as="geometry" />
        </mxCell>
        <mxCell id="XbH7AC_qgNwCNuD4yxMm-26" value="" style="rounded=1;whiteSpace=wrap;html=1;" vertex="1" parent="1">
          <mxGeometry x="1230" y="520" width="120" height="60" as="geometry" />
        </mxCell>
        <mxCell id="XbH7AC_qgNwCNuD4yxMm-32" value="" style="edgeStyle=orthogonalEdgeStyle;rounded=0;orthogonalLoop=1;jettySize=auto;html=1;" edge="1" parent="1" source="XbH7AC_qgNwCNuD4yxMm-29" target="XbH7AC_qgNwCNuD4yxMm-31">
          <mxGeometry relative="1" as="geometry" />
        </mxCell>
        <mxCell id="XbH7AC_qgNwCNuD4yxMm-29" value="" style="rounded=1;whiteSpace=wrap;html=1;" vertex="1" parent="1">
          <mxGeometry x="1010" y="520" width="120" height="60" as="geometry" />
        </mxCell>
        <mxCell id="XbH7AC_qgNwCNuD4yxMm-34" value="" style="edgeStyle=orthogonalEdgeStyle;rounded=0;orthogonalLoop=1;jettySize=auto;html=1;" edge="1" parent="1" source="XbH7AC_qgNwCNuD4yxMm-31" target="XbH7AC_qgNwCNuD4yxMm-33">
          <mxGeometry relative="1" as="geometry" />
        </mxCell>
        <mxCell id="XbH7AC_qgNwCNuD4yxMm-31" value="" style="rounded=1;whiteSpace=wrap;html=1;" vertex="1" parent="1">
          <mxGeometry x="810" y="520" width="120" height="60" as="geometry" />
        </mxCell>
        <mxCell id="XbH7AC_qgNwCNuD4yxMm-36" value="" style="edgeStyle=orthogonalEdgeStyle;rounded=0;orthogonalLoop=1;jettySize=auto;html=1;" edge="1" parent="1" source="XbH7AC_qgNwCNuD4yxMm-33" target="XbH7AC_qgNwCNuD4yxMm-35">
          <mxGeometry relative="1" as="geometry" />
        </mxCell>
        <mxCell id="XbH7AC_qgNwCNuD4yxMm-33" value="" style="rounded=1;whiteSpace=wrap;html=1;" vertex="1" parent="1">
          <mxGeometry x="610" y="520" width="120" height="60" as="geometry" />
        </mxCell>
        <mxCell id="XbH7AC_qgNwCNuD4yxMm-38" value="" style="edgeStyle=orthogonalEdgeStyle;rounded=0;orthogonalLoop=1;jettySize=auto;html=1;" edge="1" parent="1" source="XbH7AC_qgNwCNuD4yxMm-35" target="XbH7AC_qgNwCNuD4yxMm-37">
          <mxGeometry relative="1" as="geometry" />
        </mxCell>
        <mxCell id="XbH7AC_qgNwCNuD4yxMm-35" value="" style="rounded=1;whiteSpace=wrap;html=1;" vertex="1" parent="1">
          <mxGeometry x="410" y="520" width="120" height="60" as="geometry" />
        </mxCell>
        <mxCell id="XbH7AC_qgNwCNuD4yxMm-37" value="" style="rounded=1;whiteSpace=wrap;html=1;" vertex="1" parent="1">
          <mxGeometry x="210" y="520" width="120" height="60" as="geometry" />
        </mxCell>
      </root>
    </mxGraphModel>
  </diagram>
</mxfile>
